<?xml version="1.0" encoding="UTF-8" standalone="no"?>
<svg
   width="520"
   height="260"
   viewBox="0 0 520 260"
   version="1.1"
   id="svg5"
   xmlns="http://www.w3.org/2000/svg"
   xmlns:svg="http://www.w3.org/2000/svg">
  <defs
     id="defs2">
    <!-- Clip path for inside the rectangle -->
    <clipPath
       id="insideRect">
      <rect
         x="20"
         y="20"
         width="160"
         height="220"
         rx="42"
         ry="42"
         id="rect1" />
    </clipPath>
    <!-- Clip path for outside the rectangle -->
    <clipPath
       id="outsideRect">
      <rect
         x="180"
         y="0"
         width="340"
         height="260"
         id="rect2" />
    </clipPath>
  </defs>
  <!-- Rounded rectangle background -->
  <rect
     x="20"
     y="20"
     width="160"
     height="220"
     rx="42"
     ry="42"
     fill="#002F6C"
     id="rect3" />
  <!-- Yellow "h" (standard font, not italic) -->
  <path
     d="m 83.945312,107.34375 q 4.453125,-9.6875 11.171875,-14.0625 6.718753,-4.375 16.015623,-4.375 13.4375,0 20.625,8.28125 7.1875,8.28125 7.1875,24.21875 V 175 h -21.875 v -47.34375 q 0,-22.26562 -15.07812,-22.26562 -7.968753,0 -12.890628,6.875 -4.84375,6.79687 -4.84375,17.49999 V 175 H 62.304687 V 59.0625 h 21.953125 v 31.640625 q 0,8.515625 -0.625,16.640625 z"
     id="text3"
     style="font-weight:700;font-size:160px;font-family:Montserrat, Arial, sans-serif;dominant-baseline:alphabetic;text-anchor:middle;fill:#f7d100"
     aria-label="h" />
  <!-- "odi!" text - yellow part inside rectangle -->
  <path
     d="m 252.57812,121.64063 q 0,16.17187 -6.40625,28.74999 -6.32812,12.57813 -18.04687,19.375 -11.64063,6.79688 -26.32813,6.79688 -17.03125,0 -26.95312,-9.14063 -9.92188,-9.21875 -9.92188,-25.15625 0,-15.70312 6.17188,-27.81249 6.25,-12.10938 17.73437,-18.750005 11.48438,-6.71875 26.17188,-6.71875 18.35937,0 27.96875,8.59375 9.60937,8.515625 9.60937,24.062505 z m -22.96875,1.64062 q 0,-19.29687 -16.25,-19.29687 -8.90625,0 -14.21875,4.6875 -5.23437,4.6875 -8.20312,14.29687 -2.96875,9.53125 -2.96875,18.35937 0,20.23438 16.25,20.23438 8.75,0 13.82812,-4.375 5.15625,-4.45313 8.04688,-13.4375 2.96875,-8.98438 3.51562,-20.46875 z M 310.25,162.5 q -5.54688,7.26562 -12.03125,10.70312 -6.40625,3.4375 -15.85938,3.4375 -12.03125,0 -19.0625,-7.96875 -7.03125,-7.96875 -7.03125,-21.32812 0,-14.92188 5,-29.21875 5,-14.29687 13.98438,-21.71875 9.0625,-7.5 21.79687,-7.5 20,0 24.53125,15.46875 h 0.39063 q 0.15625,-1.5625 0.625,-4.6875 0.46875,-3.125 1.40625,-7.96875 l 6.5625,-32.65625 h 21.64062 l -18.59375,97.89062 q -1.5625,8.75 -2.26562,18.04688 h -21.95313 q 0,-4.92188 1.17188,-12.5 z m -18.28125,-0.9375 q 6.32812,0 10.85937,-2.65625 4.53125,-2.73438 7.73438,-8.28125 3.20312,-5.625 5.07812,-14.0625 1.875,-8.4375 1.875,-14.76562 0,-9.375 -3.67187,-13.59375 -3.67188,-4.29688 -11.01563,-4.29688 -7.96875,0 -13.04687,5.39063 -5,5.39062 -7.65625,15.78125 -2.65625,10.39062 -2.65625,19.21874 0,17.26563 12.5,17.26563 z M 365.5,75.234375 368.70312,59.0625 h 21.95313 l -3.20313,16.171875 z M 346.20312,175 362.60937,90.46875 H 384.5625 L 368.07812,175 Z m 68.76563,-33.28125 H 397 l 12.5,-76.796875 h 22.96875 z M 388.09375,175 l 4.0625,-21.09375 h 22.5 L 410.59375,175 Z"
     id="text4"
     clip-path="url(#insideRect)"
     style="font-style:italic;font-weight:600;font-size:160px;font-family:Montserrat, Arial, sans-serif;letter-spacing:-6;fill:#f7d100"
     aria-label="odi!" />
  <!-- "odi!" text - blue part outside rectangle -->
  <path
     d="m 252.57812,121.64063 q 0,16.17187 -6.40625,28.74999 -6.32812,12.57813 -18.04687,19.375 -11.64063,6.79688 -26.32813,6.79688 -17.03125,0 -26.95312,-9.14063 -9.92188,-9.21875 -9.92188,-25.15625 0,-15.70312 6.17188,-27.81249 6.25,-12.10938 17.73437,-18.750005 11.48438,-6.71875 26.17188,-6.71875 18.35937,0 27.96875,8.59375 9.60937,8.515625 9.60937,24.062505 z m -22.96875,1.64062 q 0,-19.29687 -16.25,-19.29687 -8.90625,0 -14.21875,4.6875 -5.23437,4.6875 -8.20312,14.29687 -2.96875,9.53125 -2.96875,18.35937 0,20.23438 16.25,20.23438 8.75,0 13.82812,-4.375 5.15625,-4.45313 8.04688,-13.4375 2.96875,-8.98438 3.51562,-20.46875 z M 310.25,162.5 q -5.54688,7.26562 -12.03125,10.70312 -6.40625,3.4375 -15.85938,3.4375 -12.03125,0 -19.0625,-7.96875 -7.03125,-7.96875 -7.03125,-21.32812 0,-14.92188 5,-29.21875 5,-14.29687 13.98438,-21.71875 9.0625,-7.5 21.79687,-7.5 20,0 24.53125,15.46875 h 0.39063 q 0.15625,-1.5625 0.625,-4.6875 0.46875,-3.125 1.40625,-7.96875 l 6.5625,-32.65625 h 21.64062 l -18.59375,97.89062 q -1.5625,8.75 -2.26562,18.04688 h -21.95313 q 0,-4.92188 1.17188,-12.5 z m -18.28125,-0.9375 q 6.32812,0 10.85937,-2.65625 4.53125,-2.73438 7.73438,-8.28125 3.20312,-5.625 5.07812,-14.0625 1.875,-8.4375 1.875,-14.76562 0,-9.375 -3.67187,-13.59375 -3.67188,-4.29688 -11.01563,-4.29688 -7.96875,0 -13.04687,5.39063 -5,5.39062 -7.65625,15.78125 -2.65625,10.39062 -2.65625,19.21874 0,17.26563 12.5,17.26563 z M 365.5,75.234375 368.70312,59.0625 h 21.95313 l -3.20313,16.171875 z M 346.20312,175 362.60937,90.46875 H 384.5625 L 368.07812,175 Z m 68.76563,-33.28125 H 397 l 12.5,-76.796875 h 22.96875 z M 388.09375,175 l 4.0625,-21.09375 h 22.5 L 410.59375,175 Z"
     id="text5"
     clip-path="url(#outsideRect)"
     style="font-style:italic;font-weight:600;font-size:160px;font-family:Montserrat, Arial, sans-serif;letter-spacing:-6;fill:#002f6c"
     aria-label="odi!" />
</svg>
